<?xml version="1.0" encoding="utf-8" standalone="no"?>
<!DOCTYPE svg PUBLIC "-//W3C//DTD SVG 1.1//EN"
  "http://www.w3.org/Graphics/SVG/1.1/DTD/svg11.dtd">
<svg xmlns:xlink="http://www.w3.org/1999/xlink" width="1000.242656pt" height="352.478437pt" viewBox="0 0 1000.242656 352.478437" xmlns="http://www.w3.org/2000/svg" version="1.1">
 <metadata>
  <rdf:RDF xmlns:dc="http://purl.org/dc/elements/1.1/" xmlns:cc="http://creativecommons.org/ns#" xmlns:rdf="http://www.w3.org/1999/02/22-rdf-syntax-ns#">
   <cc:Work>
    <dc:type rdf:resource="http://purl.org/dc/dcmitype/StillImage"/>
    <dc:date>2026-08-29T01:37:24.179904</dc:date>
    <dc:format>image/svg+xml</dc:format>
    <dc:creator>
     <cc:Agent>
      <dc:title>Matplotlib v3.11.1, https://matplotlib.org/</dc:title>
     </cc:Agent>
    </dc:creator>
   </cc:Work>
  </rdf:RDF>
 </metadata>
 <defs>
  <style type="text/css">*{stroke-linejoin: round; stroke-linecap: butt}</style>
 </defs>
 <g id="figure_1">
  <g id="patch_1">
   <path d="M 0 352.478437 
L 1000.242656 352.478437 
L 1000.242656 0 
L 0 0 
z
" style="fill: #ffffff"/>
  </g>
  <g id="axes_1">
   <g id="patch_2">
    <path d="M 40.925 314.277656 
L 993.042656 314.277656 
L 993.042656 22.317187 
L 40.925 22.317187 
z
" style="fill: #ffffff"/>
   </g>
   <g id="matplotlib.axis_1">
    <g id="xtick_1">
     <g id="line2d_1">
      <path d="M 84.203075 314.277656 
L 84.203075 22.317187 
" clip-path="url(#pc0bf94dced)" style="fill: none; stroke: #b0b0b0; stroke-opacity: 0.3; stroke-width: 0.8; stroke-linecap: square"/>
     </g>
     <g id="line2d_2">
      <defs>
       <path id="m6789761908" d="M 0 0 
L 0 3.5 
" style="stroke: #000000; stroke-width: 0.8"/>
      </defs>
      <g>
       <use xlink:href="#m6789761908" x="84.203075" y="314.277656" style="stroke: #000000; stroke-width: 0.8"/>
      </g>
     </g>
     <g id="text_1">
      <!-- 0 -->
      <g transform="translate(81.021825 328.875312) scale(0.1 -0.1)">
       <defs>
        <path id="DejaVuSans-13" d="M 2034 4250 
Q 1547 4250 1301 3770 
Q 1056 3291 1056 2328 
Q 1056 1369 1301 889 
Q 1547 409 2034 409 
Q 2525 409 2770 889 
Q 3016 1369 3016 2328 
Q 3016 3291 2770 3770 
Q 2525 4250 2034 4250 
z
M 2034 4750 
Q 2819 4750 3233 4129 
Q 3647 3509 3647 2328 
Q 3647 1150 3233 529 
Q 2819 -91 2034 -91 
Q 1250 -91 836 529 
Q 422 1150 422 2328 
Q 422 3509 836 4129 
Q 1250 4750 2034 4750 
z
" transform="scale(0.015625)"/>
       </defs>
       <use xlink:href="#DejaVuSans-13"/>
      </g>
     </g>
    </g>
    <g id="xtick_2">
     <g id="line2d_3">
      <path d="M 228.945802 314.277656 
L 228.945802 22.317187 
" clip-path="url(#pc0bf94dced)" style="fill: none; stroke: #b0b0b0; stroke-opacity: 0.3; stroke-width: 0.8; stroke-linecap: square"/>
     </g>
     <g id="line2d_4">
      <g>
       <use xlink:href="#m6789761908" x="228.945802" y="314.277656" style="stroke: #000000; stroke-width: 0.8"/>
      </g>
     </g>
     <g id="text_2">
      <!-- 50 -->
      <g transform="translate(222.583302 328.875312) scale(0.1 -0.1)">
       <defs>
        <path id="DejaVuSans-18" d="M 691 4666 
L 3169 4666 
L 3169 4134 
L 1269 4134 
L 1269 2991 
Q 1406 3038 1543 3061 
Q 1681 3084 1819 3084 
Q 2600 3084 3056 2656 
Q 3513 2228 3513 1497 
Q 3513 744 3044 326 
Q 2575 -91 1722 -91 
Q 1428 -91 1123 -41 
Q 819 9 494 109 
L 494 744 
Q 775 591 1075 516 
Q 1375 441 1709 441 
Q 2250 441 2565 725 
Q 2881 1009 2881 1497 
Q 2881 1984 2565 2268 
Q 2250 2553 1709 2553 
Q 1456 2553 1204 2497 
Q 953 2441 691 2322 
L 691 4666 
z
" transform="scale(0.015625)"/>
       </defs>
       <use xlink:href="#DejaVuSans-18"/>
       <use xlink:href="#DejaVuSans-13" transform="translate(63.625 0)"/>
      </g>
     </g>
    </g>
    <g id="xtick_3">
     <g id="line2d_5">
      <path d="M 373.688529 314.277656 
L 373.688529 22.317187 
" clip-path="url(#pc0bf94dced)" style="fill: none; stroke: #b0b0b0; stroke-opacity: 0.3; stroke-width: 0.8; stroke-linecap: square"/>
     </g>
     <g id="line2d_6">
      <g>
       <use xlink:href="#m6789761908" x="373.688529" y="314.277656" style="stroke: #000000; stroke-width: 0.8"/>
      </g>
     </g>
     <g id="text_3">
      <!-- 100 -->
      <g transform="translate(364.144779 328.875312) scale(0.1 -0.1)">
       <defs>
        <path id="DejaVuSans-14" d="M 794 531 
L 1825 531 
L 1825 4091 
L 703 3866 
L 703 4441 
L 1819 4666 
L 2450 4666 
L 2450 531 
L 3481 531 
L 3481 0 
L 794 0 
L 794 531 
z
" transform="scale(0.015625)"/>
       </defs>
       <use xlink:href="#DejaVuSans-14"/>
       <use xlink:href="#DejaVuSans-13" transform="translate(63.625 0)"/>
       <use xlink:href="#DejaVuSans-13" transform="translate(127.25 0)"/>
      </g>
     </g>
    </g>
    <g id="xtick_4">
     <g id="line2d_7">
      <path d="M 518.431255 314.277656 
L 518.431255 22.317187 
" clip-path="url(#pc0bf94dced)" style="fill: none; stroke: #b0b0b0; stroke-opacity: 0.3; stroke-width: 0.8; stroke-linecap: square"/>
     </g>
     <g id="line2d_8">
      <g>
       <use xlink:href="#m6789761908" x="518.431255" y="314.277656" style="stroke: #000000; stroke-width: 0.8"/>
      </g>
     </g>
     <g id="text_4">
      <!-- 150 -->
      <g transform="translate(508.887505 328.875312) scale(0.1 -0.1)">
       <use xlink:href="#DejaVuSans-14"/>
       <use xlink:href="#DejaVuSans-18" transform="translate(63.625 0)"/>
       <use xlink:href="#DejaVuSans-13" transform="translate(127.25 0)"/>
      </g>
     </g>
    </g>
    <g id="xtick_5">
     <g id="line2d_9">
      <path d="M 663.173982 314.277656 
L 663.173982 22.317187 
" clip-path="url(#pc0bf94dced)" style="fill: none; stroke: #b0b0b0; stroke-opacity: 0.3; stroke-width: 0.8; stroke-linecap: square"/>
     </g>
     <g id="line2d_10">
      <g>
       <use xlink:href="#m6789761908" x="663.173982" y="314.277656" style="stroke: #000000; stroke-width: 0.8"/>
      </g>
     </g>
     <g id="text_5">
      <!-- 200 -->
      <g transform="translate(653.630232 328.875312) scale(0.1 -0.1)">
       <defs>
        <path id="DejaVuSans-15" d="M 1228 531 
L 3431 531 
L 3431 0 
L 469 0 
L 469 531 
Q 828 903 1448 1529 
Q 2069 2156 2228 2338 
Q 2531 2678 2651 2914 
Q 2772 3150 2772 3378 
Q 2772 3750 2511 3984 
Q 2250 4219 1831 4219 
Q 1534 4219 1204 4116 
Q 875 4013 500 3803 
L 500 4441 
Q 881 4594 1212 4672 
Q 1544 4750 1819 4750 
Q 2544 4750 2975 4387 
Q 3406 4025 3406 3419 
Q 3406 3131 3298 2873 
Q 3191 2616 2906 2266 
Q 2828 2175 2409 1742 
Q 1991 1309 1228 531 
z
" transform="scale(0.015625)"/>
       </defs>
       <use xlink:href="#DejaVuSans-15"/>
       <use xlink:href="#DejaVuSans-13" transform="translate(63.625 0)"/>
       <use xlink:href="#DejaVuSans-13" transform="translate(127.25 0)"/>
      </g>
     </g>
    </g>
    <g id="xtick_6">
     <g id="line2d_11">
      <path d="M 807.916709 314.277656 
L 807.916709 22.317187 
" clip-path="url(#pc0bf94dced)" style="fill: none; stroke: #b0b0b0; stroke-opacity: 0.3; stroke-width: 0.8; stroke-linecap: square"/>
     </g>
     <g id="line2d_12">
      <g>
       <use xlink:href="#m6789761908" x="807.916709" y="314.277656" style="stroke: #000000; stroke-width: 0.8"/>
      </g>
     </g>
     <g id="text_6">
      <!-- 250 -->
      <g transform="translate(798.372959 328.875312) scale(0.1 -0.1)">
       <use xlink:href="#DejaVuSans-15"/>
       <use xlink:href="#DejaVuSans-18" transform="translate(63.625 0)"/>
       <use xlink:href="#DejaVuSans-13" transform="translate(127.25 0)"/>
      </g>
     </g>
    </g>
    <g id="xtick_7">
     <g id="line2d_13">
      <path d="M 952.659435 314.277656 
L 952.659435 22.317187 
" clip-path="url(#pc0bf94dced)" style="fill: none; stroke: #b0b0b0; stroke-opacity: 0.3; stroke-width: 0.8; stroke-linecap: square"/>
     </g>
     <g id="line2d_14">
      <g>
       <use xlink:href="#m6789761908" x="952.659435" y="314.277656" style="stroke: #000000; stroke-width: 0.8"/>
      </g>
     </g>
     <g id="text_7">
      <!-- 300 -->
      <g transform="translate(943.115685 328.875312) scale(0.1 -0.1)">
       <defs>
        <path id="DejaVuSans-16" d="M 2597 2516 
Q 3050 2419 3304 2112 
Q 3559 1806 3559 1356 
Q 3559 666 3084 287 
Q 2609 -91 1734 -91 
Q 1441 -91 1130 -33 
Q 819 25 488 141 
L 488 750 
Q 750 597 1062 519 
Q 1375 441 1716 441 
Q 2309 441 2620 675 
Q 2931 909 2931 1356 
Q 2931 1769 2642 2001 
Q 2353 2234 1838 2234 
L 1294 2234 
L 1294 2753 
L 1863 2753 
Q 2328 2753 2575 2939 
Q 2822 3125 2822 3475 
Q 2822 3834 2567 4026 
Q 2313 4219 1838 4219 
Q 1578 4219 1281 4162 
Q 984 4106 628 3988 
L 628 4550 
Q 988 4650 1302 4700 
Q 1616 4750 1894 4750 
Q 2613 4750 3031 4423 
Q 3450 4097 3450 3541 
Q 3450 3153 3228 2886 
Q 3006 2619 2597 2516 
z
" transform="scale(0.015625)"/>
       </defs>
       <use xlink:href="#DejaVuSans-16"/>
       <use xlink:href="#DejaVuSans-13" transform="translate(63.625 0)"/>
       <use xlink:href="#DejaVuSans-13" transform="translate(127.25 0)"/>
      </g>
     </g>
    </g>
    <g id="text_8">
     <!-- Muestras operativas -->
     <g transform="translate(466.139297 342.876094) scale(0.1 -0.1)">
      <defs>
       <path id="DejaVuSans-30" d="M 628 4666 
L 1569 4666 
L 2759 1491 
L 3956 4666 
L 4897 4666 
L 4897 0 
L 4281 0 
L 4281 4097 
L 3078 897 
L 2444 897 
L 1241 4097 
L 1241 0 
L 628 0 
L 628 4666 
z
" transform="scale(0.015625)"/>
       <path id="DejaVuSans-58" d="M 544 1381 
L 544 3500 
L 1119 3500 
L 1119 1403 
Q 1119 906 1312 657 
Q 1506 409 1894 409 
Q 2359 409 2629 706 
Q 2900 1003 2900 1516 
L 2900 3500 
L 3475 3500 
L 3475 0 
L 2900 0 
L 2900 538 
Q 2691 219 2414 64 
Q 2138 -91 1772 -91 
Q 1169 -91 856 284 
Q 544 659 544 1381 
z
M 1991 3584 
L 1991 3584 
z
" transform="scale(0.015625)"/>
       <path id="DejaVuSans-48" d="M 3597 1894 
L 3597 1613 
L 953 1613 
Q 991 1019 1311 708 
Q 1631 397 2203 397 
Q 2534 397 2845 478 
Q 3156 559 3463 722 
L 3463 178 
Q 3153 47 2828 -22 
Q 2503 -91 2169 -91 
Q 1331 -91 842 396 
Q 353 884 353 1716 
Q 353 2575 817 3079 
Q 1281 3584 2069 3584 
Q 2775 3584 3186 3129 
Q 3597 2675 3597 1894 
z
M 3022 2063 
Q 3016 2534 2758 2815 
Q 2500 3097 2075 3097 
Q 1594 3097 1305 2825 
Q 1016 2553 972 2059 
L 3022 2063 
z
" transform="scale(0.015625)"/>
       <path id="DejaVuSans-56" d="M 2834 3397 
L 2834 2853 
Q 2591 2978 2328 3040 
Q 2066 3103 1784 3103 
Q 1356 3103 1142 2972 
Q 928 2841 928 2578 
Q 928 2378 1081 2264 
Q 1234 2150 1697 2047 
L 1894 2003 
Q 2506 1872 2764 1633 
Q 3022 1394 3022 966 
Q 3022 478 2636 193 
Q 2250 -91 1575 -91 
Q 1294 -91 989 -36 
Q 684 19 347 128 
L 347 722 
Q 666 556 975 473 
Q 1284 391 1588 391 
Q 1994 391 2212 530 
Q 2431 669 2431 922 
Q 2431 1156 2273 1281 
Q 2116 1406 1581 1522 
L 1381 1569 
Q 847 1681 609 1914 
Q 372 2147 372 2553 
Q 372 3047 722 3315 
Q 1072 3584 1716 3584 
Q 2034 3584 2315 3537 
Q 2597 3491 2834 3397 
z
" transform="scale(0.015625)"/>
       <path id="DejaVuSans-57" d="M 1172 4494 
L 1172 3500 
L 2356 3500 
L 2356 3053 
L 1172 3053 
L 1172 1153 
Q 1172 725 1289 603 
Q 1406 481 1766 481 
L 2356 481 
L 2356 0 
L 1766 0 
Q 1100 0 847 248 
Q 594 497 594 1153 
L 594 3053 
L 172 3053 
L 172 3500 
L 594 3500 
L 594 4494 
L 1172 4494 
z
" transform="scale(0.015625)"/>
       <path id="DejaVuSans-55" d="M 2631 2963 
Q 2534 3019 2420 3045 
Q 2306 3072 2169 3072 
Q 1681 3072 1420 2755 
Q 1159 2438 1159 1844 
L 1159 0 
L 581 0 
L 581 3500 
L 1159 3500 
L 1159 2956 
Q 1341 3275 1631 3429 
Q 1922 3584 2338 3584 
Q 2397 3584 2469 3576 
Q 2541 3569 2628 3553 
L 2631 2963 
z
" transform="scale(0.015625)"/>
       <path id="DejaVuSans-44" d="M 2194 1759 
Q 1497 1759 1228 1600 
Q 959 1441 959 1056 
Q 959 750 1161 570 
Q 1363 391 1709 391 
Q 2188 391 2477 730 
Q 2766 1069 2766 1631 
L 2766 1759 
L 2194 1759 
z
M 3341 1997 
L 3341 0 
L 2766 0 
L 2766 531 
Q 2569 213 2275 61 
Q 1981 -91 1556 -91 
Q 1019 -91 701 211 
Q 384 513 384 1019 
Q 384 1609 779 1909 
Q 1175 2209 1959 2209 
L 2766 2209 
L 2766 2266 
Q 2766 2663 2505 2880 
Q 2244 3097 1772 3097 
Q 1472 3097 1187 3025 
Q 903 2953 641 2809 
L 641 3341 
Q 956 3463 1253 3523 
Q 1550 3584 1831 3584 
Q 2591 3584 2966 3190 
Q 3341 2797 3341 1997 
z
" transform="scale(0.015625)"/>
       <path id="DejaVuSans-3" transform="scale(0.015625)"/>
       <path id="DejaVuSans-52" d="M 1959 3097 
Q 1497 3097 1228 2736 
Q 959 2375 959 1747 
Q 959 1119 1226 758 
Q 1494 397 1959 397 
Q 2419 397 2687 759 
Q 2956 1122 2956 1747 
Q 2956 2369 2687 2733 
Q 2419 3097 1959 3097 
z
M 1959 3584 
Q 2709 3584 3137 3096 
Q 3566 2609 3566 1747 
Q 3566 888 3137 398 
Q 2709 -91 1959 -91 
Q 1206 -91 779 398 
Q 353 888 353 1747 
Q 353 2609 779 3096 
Q 1206 3584 1959 3584 
z
" transform="scale(0.015625)"/>
       <path id="DejaVuSans-53" d="M 1159 525 
L 1159 -1331 
L 581 -1331 
L 581 3500 
L 1159 3500 
L 1159 2969 
Q 1341 3281 1617 3432 
Q 1894 3584 2278 3584 
Q 2916 3584 3314 3078 
Q 3713 2572 3713 1747 
Q 3713 922 3314 415 
Q 2916 -91 2278 -91 
Q 1894 -91 1617 61 
Q 1341 213 1159 525 
z
M 3116 1747 
Q 3116 2381 2855 2742 
Q 2594 3103 2138 3103 
Q 1681 3103 1420 2742 
Q 1159 2381 1159 1747 
Q 1159 1113 1420 752 
Q 1681 391 2138 391 
Q 2594 391 2855 752 
Q 3116 1113 3116 1747 
z
" transform="scale(0.015625)"/>
       <path id="DejaVuSans-4c" d="M 603 3500 
L 1178 3500 
L 1178 0 
L 603 0 
L 603 3500 
z
M 603 4863 
L 1178 4863 
L 1178 4134 
L 603 4134 
L 603 4863 
z
" transform="scale(0.015625)"/>
       <path id="DejaVuSans-59" d="M 191 3500 
L 800 3500 
L 1894 563 
L 2988 3500 
L 3597 3500 
L 2284 0 
L 1503 0 
L 191 3500 
z
" transform="scale(0.015625)"/>
      </defs>
      <use xlink:href="#DejaVuSans-30"/>
      <use xlink:href="#DejaVuSans-58" transform="translate(86.28125 0)"/>
      <use xlink:href="#DejaVuSans-48" transform="translate(149.65625 0)"/>
      <use xlink:href="#DejaVuSans-56" transform="translate(211.1875 0)"/>
      <use xlink:href="#DejaVuSans-57" transform="translate(263.28125 0)"/>
      <use xlink:href="#DejaVuSans-55" transform="translate(302.484375 0)"/>
      <use xlink:href="#DejaVuSans-44" transform="translate(343.59375 0)"/>
      <use xlink:href="#DejaVuSans-56" transform="translate(404.875 0)"/>
      <use xlink:href="#DejaVuSans-3" transform="translate(456.96875 0)"/>
      <use xlink:href="#DejaVuSans-52" transform="translate(488.75 0)"/>
      <use xlink:href="#DejaVuSans-53" transform="translate(549.9375 0)"/>
      <use xlink:href="#DejaVuSans-48" transform="translate(613.421875 0)"/>
      <use xlink:href="#DejaVuSans-55" transform="translate(674.953125 0)"/>
      <use xlink:href="#DejaVuSans-44" transform="translate(716.0625 0)"/>
      <use xlink:href="#DejaVuSans-57" transform="translate(777.34375 0)"/>
      <use xlink:href="#DejaVuSans-4c" transform="translate(816.546875 0)"/>
      <use xlink:href="#DejaVuSans-59" transform="translate(844.328125 0)"/>
      <use xlink:href="#DejaVuSans-44" transform="translate(903.515625 0)"/>
      <use xlink:href="#DejaVuSans-56" transform="translate(964.796875 0)"/>
     </g>
    </g>
   </g>
   <g id="matplotlib.axis_2">
    <g id="ytick_1">
     <g id="line2d_15">
      <path d="M 40.925 311.11055 
L 993.042656 311.11055 
" clip-path="url(#pc0bf94dced)" style="fill: none; stroke: #b0b0b0; stroke-opacity: 0.3; stroke-width: 0.8; stroke-linecap: square"/>
     </g>
     <g id="line2d_16">
      <defs>
       <path id="mfa91f74453" d="M 0 0 
L -3.5 0 
" style="stroke: #000000; stroke-width: 0.8"/>
      </defs>
      <g>
       <use xlink:href="#mfa91f74453" x="40.925" y="311.11055" style="stroke: #000000; stroke-width: 0.8"/>
      </g>
     </g>
     <g id="text_9">
      <!-- 55 -->
      <g transform="translate(21.2 314.909378) scale(0.1 -0.1)">
       <use xlink:href="#DejaVuSans-18"/>
       <use xlink:href="#DejaVuSans-18" transform="translate(63.625 0)"/>
      </g>
     </g>
    </g>
    <g id="ytick_2">
     <g id="line2d_17">
      <path d="M 40.925 274.422706 
L 993.042656 274.422706 
" clip-path="url(#pc0bf94dced)" style="fill: none; stroke: #b0b0b0; stroke-opacity: 0.3; stroke-width: 0.8; stroke-linecap: square"/>
     </g>
     <g id="line2d_18">
      <g>
       <use xlink:href="#mfa91f74453" x="40.925" y="274.422706" style="stroke: #000000; stroke-width: 0.8"/>
      </g>
     </g>
     <g id="text_10">
      <!-- 60 -->
      <g transform="translate(21.2 278.221534) scale(0.1 -0.1)">
       <defs>
        <path id="DejaVuSans-19" d="M 2113 2584 
Q 1688 2584 1439 2293 
Q 1191 2003 1191 1497 
Q 1191 994 1439 701 
Q 1688 409 2113 409 
Q 2538 409 2786 701 
Q 3034 994 3034 1497 
Q 3034 2003 2786 2293 
Q 2538 2584 2113 2584 
z
M 3366 4563 
L 3366 3988 
Q 3128 4100 2886 4159 
Q 2644 4219 2406 4219 
Q 1781 4219 1451 3797 
Q 1122 3375 1075 2522 
Q 1259 2794 1537 2939 
Q 1816 3084 2150 3084 
Q 2853 3084 3261 2657 
Q 3669 2231 3669 1497 
Q 3669 778 3244 343 
Q 2819 -91 2113 -91 
Q 1303 -91 875 529 
Q 447 1150 447 2328 
Q 447 3434 972 4092 
Q 1497 4750 2381 4750 
Q 2619 4750 2861 4703 
Q 3103 4656 3366 4563 
z
" transform="scale(0.015625)"/>
       </defs>
       <use xlink:href="#DejaVuSans-19"/>
       <use xlink:href="#DejaVuSans-13" transform="translate(63.625 0)"/>
      </g>
     </g>
    </g>
    <g id="ytick_3">
     <g id="line2d_19">
      <path d="M 40.925 237.734861 
L 993.042656 237.734861 
" clip-path="url(#pc0bf94dced)" style="fill: none; stroke: #b0b0b0; stroke-opacity: 0.3; stroke-width: 0.8; stroke-linecap: square"/>
     </g>
     <g id="line2d_20">
      <g>
       <use xlink:href="#mfa91f74453" x="40.925" y="237.734861" style="stroke: #000000; stroke-width: 0.8"/>
      </g>
     </g>
     <g id="text_11">
      <!-- 65 -->
      <g transform="translate(21.2 241.533689) scale(0.1 -0.1)">
       <use xlink:href="#DejaVuSans-19"/>
       <use xlink:href="#DejaVuSans-18" transform="translate(63.625 0)"/>
      </g>
     </g>
    </g>
    <g id="ytick_4">
     <g id="line2d_21">
      <path d="M 40.925 201.047016 
L 993.042656 201.047016 
" clip-path="url(#pc0bf94dced)" style="fill: none; stroke: #b0b0b0; stroke-opacity: 0.3; stroke-width: 0.8; stroke-linecap: square"/>
     </g>
     <g id="line2d_22">
      <g>
       <use xlink:href="#mfa91f74453" x="40.925" y="201.047016" style="stroke: #000000; stroke-width: 0.8"/>
      </g>
     </g>
     <g id="text_12">
      <!-- 70 -->
      <g transform="translate(21.2 204.845845) scale(0.1 -0.1)">
       <defs>
        <path id="DejaVuSans-1a" d="M 525 4666 
L 3525 4666 
L 3525 4397 
L 1831 0 
L 1172 0 
L 2766 4134 
L 525 4134 
L 525 4666 
z
" transform="scale(0.015625)"/>
       </defs>
       <use xlink:href="#DejaVuSans-1a"/>
       <use xlink:href="#DejaVuSans-13" transform="translate(63.625 0)"/>
      </g>
     </g>
    </g>
    <g id="ytick_5">
     <g id="line2d_23">
      <path d="M 40.925 164.359172 
L 993.042656 164.359172 
" clip-path="url(#pc0bf94dced)" style="fill: none; stroke: #b0b0b0; stroke-opacity: 0.3; stroke-width: 0.8; stroke-linecap: square"/>
     </g>
     <g id="line2d_24">
      <g>
       <use xlink:href="#mfa91f74453" x="40.925" y="164.359172" style="stroke: #000000; stroke-width: 0.8"/>
      </g>
     </g>
     <g id="text_13">
      <!-- 75 -->
      <g transform="translate(21.2 168.158) scale(0.1 -0.1)">
       <use xlink:href="#DejaVuSans-1a"/>
       <use xlink:href="#DejaVuSans-18" transform="translate(63.625 0)"/>
      </g>
     </g>
    </g>
    <g id="ytick_6">
     <g id="line2d_25">
      <path d="M 40.925 127.671327 
L 993.042656 127.671327 
" clip-path="url(#pc0bf94dced)" style="fill: none; stroke: #b0b0b0; stroke-opacity: 0.3; stroke-width: 0.8; stroke-linecap: square"/>
     </g>
     <g id="line2d_26">
      <g>
       <use xlink:href="#mfa91f74453" x="40.925" y="127.671327" style="stroke: #000000; stroke-width: 0.8"/>
      </g>
     </g>
     <g id="text_14">
      <!-- 80 -->
      <g transform="translate(21.2 131.470155) scale(0.1 -0.1)">
       <defs>
        <path id="DejaVuSans-1b" d="M 2034 2216 
Q 1584 2216 1326 1975 
Q 1069 1734 1069 1313 
Q 1069 891 1326 650 
Q 1584 409 2034 409 
Q 2484 409 2743 651 
Q 3003 894 3003 1313 
Q 3003 1734 2745 1975 
Q 2488 2216 2034 2216 
z
M 1403 2484 
Q 997 2584 770 2862 
Q 544 3141 544 3541 
Q 544 4100 942 4425 
Q 1341 4750 2034 4750 
Q 2731 4750 3128 4425 
Q 3525 4100 3525 3541 
Q 3525 3141 3298 2862 
Q 3072 2584 2669 2484 
Q 3125 2378 3379 2068 
Q 3634 1759 3634 1313 
Q 3634 634 3220 271 
Q 2806 -91 2034 -91 
Q 1263 -91 848 271 
Q 434 634 434 1313 
Q 434 1759 690 2068 
Q 947 2378 1403 2484 
z
M 1172 3481 
Q 1172 3119 1398 2916 
Q 1625 2713 2034 2713 
Q 2441 2713 2670 2916 
Q 2900 3119 2900 3481 
Q 2900 3844 2670 4047 
Q 2441 4250 2034 4250 
Q 1625 4250 1398 4047 
Q 1172 3844 1172 3481 
z
" transform="scale(0.015625)"/>
       </defs>
       <use xlink:href="#DejaVuSans-1b"/>
       <use xlink:href="#DejaVuSans-13" transform="translate(63.625 0)"/>
      </g>
     </g>
    </g>
    <g id="ytick_7">
     <g id="line2d_27">
      <path d="M 40.925 90.983483 
L 993.042656 90.983483 
" clip-path="url(#pc0bf94dced)" style="fill: none; stroke: #b0b0b0; stroke-opacity: 0.3; stroke-width: 0.8; stroke-linecap: square"/>
     </g>
     <g id="line2d_28">
      <g>
       <use xlink:href="#mfa91f74453" x="40.925" y="90.983483" style="stroke: #000000; stroke-width: 0.8"/>
      </g>
     </g>
     <g id="text_15">
      <!-- 85 -->
      <g transform="translate(21.2 94.782311) scale(0.1 -0.1)">
       <use xlink:href="#DejaVuSans-1b"/>
       <use xlink:href="#DejaVuSans-18" transform="translate(63.625 0)"/>
      </g>
     </g>
    </g>
    <g id="ytick_8">
     <g id="line2d_29">
      <path d="M 40.925 54.295638 
L 993.042656 54.295638 
" clip-path="url(#pc0bf94dced)" style="fill: none; stroke: #b0b0b0; stroke-opacity: 0.3; stroke-width: 0.8; stroke-linecap: square"/>
     </g>
     <g id="line2d_30">
      <g>
       <use xlink:href="#mfa91f74453" x="40.925" y="54.295638" style="stroke: #000000; stroke-width: 0.8"/>
      </g>
     </g>
     <g id="text_16">
      <!-- 90 -->
      <g transform="translate(21.2 58.094466) scale(0.1 -0.1)">
       <defs>
        <path id="DejaVuSans-1c" d="M 703 97 
L 703 672 
Q 941 559 1184 500 
Q 1428 441 1663 441 
Q 2288 441 2617 861 
Q 2947 1281 2994 2138 
Q 2813 1869 2534 1725 
Q 2256 1581 1919 1581 
Q 1219 1581 811 2004 
Q 403 2428 403 3163 
Q 403 3881 828 4315 
Q 1253 4750 1959 4750 
Q 2769 4750 3195 4129 
Q 3622 3509 3622 2328 
Q 3622 1225 3098 567 
Q 2575 -91 1691 -91 
Q 1453 -91 1209 -44 
Q 966 3 703 97 
z
M 1959 2075 
Q 2384 2075 2632 2365 
Q 2881 2656 2881 3163 
Q 2881 3666 2632 3958 
Q 2384 4250 1959 4250 
Q 1534 4250 1286 3958 
Q 1038 3666 1038 3163 
Q 1038 2656 1286 2365 
Q 1534 2075 1959 2075 
z
" transform="scale(0.015625)"/>
       </defs>
       <use xlink:href="#DejaVuSans-1c"/>
       <use xlink:href="#DejaVuSans-13" transform="translate(63.625 0)"/>
      </g>
     </g>
    </g>
    <g id="text_17">
     <!-- NOx (mg/m³) -->
     <g transform="translate(14.797656 201.027891) rotate(-90) scale(0.1 -0.1)">
      <defs>
       <path id="DejaVuSans-31" d="M 628 4666 
L 1478 4666 
L 3547 763 
L 3547 4666 
L 4159 4666 
L 4159 0 
L 3309 0 
L 1241 3903 
L 1241 0 
L 628 0 
L 628 4666 
z
" transform="scale(0.015625)"/>
       <path id="DejaVuSans-32" d="M 2522 4238 
Q 1834 4238 1429 3725 
Q 1025 3213 1025 2328 
Q 1025 1447 1429 934 
Q 1834 422 2522 422 
Q 3209 422 3611 934 
Q 4013 1447 4013 2328 
Q 4013 3213 3611 3725 
Q 3209 4238 2522 4238 
z
M 2522 4750 
Q 3503 4750 4090 4092 
Q 4678 3434 4678 2328 
Q 4678 1225 4090 567 
Q 3503 -91 2522 -91 
Q 1538 -91 948 565 
Q 359 1222 359 2328 
Q 359 3434 948 4092 
Q 1538 4750 2522 4750 
z
" transform="scale(0.015625)"/>
       <path id="DejaVuSans-5b" d="M 3513 3500 
L 2247 1797 
L 3578 0 
L 2900 0 
L 1881 1375 
L 863 0 
L 184 0 
L 1544 1831 
L 300 3500 
L 978 3500 
L 1906 2253 
L 2834 3500 
L 3513 3500 
z
" transform="scale(0.015625)"/>
       <path id="DejaVuSans-b" d="M 1984 4856 
Q 1566 4138 1362 3434 
Q 1159 2731 1159 2009 
Q 1159 1288 1364 580 
Q 1569 -128 1984 -844 
L 1484 -844 
Q 1016 -109 783 600 
Q 550 1309 550 2009 
Q 550 2706 781 3412 
Q 1013 4119 1484 4856 
L 1984 4856 
z
" transform="scale(0.015625)"/>
       <path id="DejaVuSans-50" d="M 3328 2828 
Q 3544 3216 3844 3400 
Q 4144 3584 4550 3584 
Q 5097 3584 5394 3201 
Q 5691 2819 5691 2113 
L 5691 0 
L 5113 0 
L 5113 2094 
Q 5113 2597 4934 2840 
Q 4756 3084 4391 3084 
Q 3944 3084 3684 2787 
Q 3425 2491 3425 1978 
L 3425 0 
L 2847 0 
L 2847 2094 
Q 2847 2600 2669 2842 
Q 2491 3084 2119 3084 
Q 1678 3084 1418 2786 
Q 1159 2488 1159 1978 
L 1159 0 
L 581 0 
L 581 3500 
L 1159 3500 
L 1159 2956 
Q 1356 3278 1631 3431 
Q 1906 3584 2284 3584 
Q 2666 3584 2933 3390 
Q 3200 3197 3328 2828 
z
" transform="scale(0.015625)"/>
       <path id="DejaVuSans-4a" d="M 2906 1791 
Q 2906 2416 2648 2759 
Q 2391 3103 1925 3103 
Q 1463 3103 1205 2759 
Q 947 2416 947 1791 
Q 947 1169 1205 825 
Q 1463 481 1925 481 
Q 2391 481 2648 825 
Q 2906 1169 2906 1791 
z
M 3481 434 
Q 3481 -459 3084 -895 
Q 2688 -1331 1869 -1331 
Q 1566 -1331 1297 -1286 
Q 1028 -1241 775 -1147 
L 775 -588 
Q 1028 -725 1275 -790 
Q 1522 -856 1778 -856 
Q 2344 -856 2625 -561 
Q 2906 -266 2906 331 
L 2906 616 
Q 2728 306 2450 153 
Q 2172 0 1784 0 
Q 1141 0 747 490 
Q 353 981 353 1791 
Q 353 2603 747 3093 
Q 1141 3584 1784 3584 
Q 2172 3584 2450 3431 
Q 2728 3278 2906 2969 
L 2906 3500 
L 3481 3500 
L 3481 434 
z
" transform="scale(0.015625)"/>
       <path id="DejaVuSans-12" d="M 1625 4666 
L 2156 4666 
L 531 -594 
L 0 -594 
L 1625 4666 
z
" transform="scale(0.015625)"/>
       <path id="DejaVuSans-75" d="M 1638 3500 
Q 1925 3444 2083 3273 
Q 2241 3103 2241 2847 
Q 2241 2459 1944 2250 
Q 1647 2041 1094 2041 
Q 916 2041 720 2073 
Q 525 2106 306 2169 
L 306 2547 
Q 469 2463 655 2422 
Q 841 2381 1050 2381 
Q 1391 2381 1578 2504 
Q 1766 2628 1766 2847 
Q 1766 3078 1592 3197 
Q 1419 3316 1081 3316 
L 813 3316 
L 813 3653 
L 1106 3653 
Q 1400 3653 1551 3751 
Q 1703 3850 1703 4038 
Q 1703 4219 1547 4314 
Q 1391 4409 1094 4409 
Q 969 4409 809 4381 
Q 650 4353 397 4281 
L 397 4641 
Q 625 4694 825 4722 
Q 1025 4750 1197 4750 
Q 1647 4750 1911 4565 
Q 2175 4381 2175 4072 
Q 2175 3856 2034 3706 
Q 1894 3556 1638 3500 
z
" transform="scale(0.015625)"/>
       <path id="DejaVuSans-c" d="M 513 4856 
L 1013 4856 
Q 1481 4119 1714 3412 
Q 1947 2706 1947 2009 
Q 1947 1309 1714 600 
Q 1481 -109 1013 -844 
L 513 -844 
Q 928 -128 1133 580 
Q 1338 1288 1338 2009 
Q 1338 2731 1133 3434 
Q 928 4138 513 4856 
z
" transform="scale(0.015625)"/>
      </defs>
      <use xlink:href="#DejaVuSans-31"/>
      <use xlink:href="#DejaVuSans-32" transform="translate(74.8125 0)"/>
      <use xlink:href="#DejaVuSans-5b" transform="translate(153.53125 0)"/>
      <use xlink:href="#DejaVuSans-3" transform="translate(212.71875 0)"/>
      <use xlink:href="#DejaVuSans-b" transform="translate(244.5 0)"/>
      <use xlink:href="#DejaVuSans-50" transform="translate(283.515625 0)"/>
      <use xlink:href="#DejaVuSans-4a" transform="translate(380.921875 0)"/>
      <use xlink:href="#DejaVuSans-12" transform="translate(444.40625 0)"/>
      <use xlink:href="#DejaVuSans-50" transform="translate(478.09375 0)"/>
      <use xlink:href="#DejaVuSans-75" transform="translate(575.5 0)"/>
      <use xlink:href="#DejaVuSans-c" transform="translate(615.59375 0)"/>
     </g>
    </g>
   </g>
   <g id="line2d_31">
    <path d="M 84.203075 113.348367 
L 87.09793 110.229934 
L 89.992784 99.96466 
L 92.887639 109.290737 
L 95.782493 112.790738 
L 98.677348 114.845249 
L 101.572202 93.97719 
L 104.467057 96.904895 
L 107.361912 98.482501 
L 110.256766 108.197424 
L 113.151621 113.348367 
L 116.046475 176.935742 
L 118.94133 196.952663 
L 121.836184 192.865643 
L 124.731039 200.26188 
L 127.625893 220.014625 
L 130.520748 219.46433 
L 133.415602 224.064978 
L 136.310457 220.41086 
L 139.205311 111.990935 
L 142.100166 91.65856 
L 144.99502 106.018188 
L 147.889875 108.417542 
L 150.78473 97.954151 
L 153.679584 90.528579 
L 156.574439 106.047522 
L 159.469293 102.378738 
L 162.364148 110.794896 
L 165.259002 110.391328 
L 168.153857 123.166072 
L 171.048711 133.159837 
L 173.943566 166.413682 
L 176.83842 139.660935 
L 179.733275 139.866386 
L 182.628129 147.108563 
L 185.522984 143.498446 
L 188.417839 142.852759 
L 191.312693 223.764135 
L 194.207548 218.906645 
L 197.102402 223.925529 
L 199.997257 231.982232 
L 202.892111 226.097487 
L 205.786966 199.227291 
L 208.68182 153.624327 
L 211.576675 149.904152 
L 214.471529 165.386427 
L 217.366384 166.222898 
L 220.261238 164.799408 
L 223.156093 171.417898 
L 226.050947 168.893762 
L 228.945802 168.174683 
L 231.840657 155.79623 
L 234.735511 159.09078 
L 237.630366 216.896192 
L 240.52522 216.536625 
L 243.420075 211.979978 
L 246.314929 213.410802 
L 249.209784 209.287114 
L 252.104638 219.919233 
L 254.999493 207.430722 
L 257.894347 216.037664 
L 260.789202 208.832155 
L 263.684056 206.175959 
L 266.578911 212.449605 
L 269.473765 210.62988 
L 272.36862 120.164975 
L 275.263475 110.772896 
L 278.158329 116.085289 
L 281.053184 111.888209 
L 283.948038 106.854659 
L 286.842893 107.287562 
L 289.737747 110.538111 
L 295.527456 110.002482 
L 298.422311 147.013171 
L 301.317165 224.094312 
L 304.21202 222.032468 
L 307.106874 208.377252 
L 310.001729 198.588938 
L 312.896583 224.064978 
L 315.791438 88.796913 
L 318.686293 91.31366 
L 321.581147 90.080954 
L 324.476002 152.171447 
L 327.370856 98.908071 
L 330.265711 94.263366 
L 333.160565 93.801129 
L 336.05542 99.729875 
L 338.950274 112.688013 
L 341.845129 110.472053 
L 344.739983 110.163876 
L 347.634838 108.571659 
L 350.529692 110.068484 
L 353.424547 191.148643 
L 356.319401 245.901568 
L 359.214256 229.047193 
L 362.109111 216.742076 
L 365.003965 226.310272 
L 367.89882 216.602683 
L 370.793674 218.231624 
L 373.688529 269.62394 
L 376.583383 301.006726 
L 379.478238 115.835836 
L 382.373092 114.41968 
L 385.267947 101.270757 
L 388.162801 95.217286 
L 391.057656 105.423835 
L 393.95251 93.133385 
L 396.847365 96.391267 
L 399.742219 93.126051 
L 405.531929 94.285366 
L 408.426783 96.288542 
L 411.321638 224.820724 
L 414.216492 234.102744 
L 417.111347 236.839666 
L 420.006201 230.206508 
L 422.901056 227.689705 
L 425.79591 220.660313 
L 428.690765 206.24935 
L 431.585619 220.777761 
L 434.480474 218.165566 
L 437.375328 231.453881 
L 440.270183 238.79145 
L 443.165038 251.015871 
L 446.059892 253.290499 
L 448.954747 114.559073 
L 451.849601 108.153367 
L 454.744456 103.090483 
L 457.63931 111.037071 
L 460.534165 109.774975 
L 463.429019 100.727796 
L 469.218728 90.924758 
L 472.113583 149.427192 
L 475.008437 256.020087 
L 477.903292 257.582998 
L 480.798146 191.676938 
L 483.693001 252.409999 
L 486.587856 246.062989 
L 489.48271 233.486391 
L 492.377565 236.832332 
L 495.272419 232.231684 
L 498.167274 246.840792 
L 501.062128 247.141635 
L 503.956983 263.232902 
L 506.851837 266.087216 
L 509.746692 100.214168 
L 512.641546 104.778092 
L 515.536401 113.473149 
L 518.431255 112.739348 
L 521.32611 114.001444 
L 524.220964 112.820073 
L 527.115819 114.184894 
L 530.010674 112.680679 
L 532.905528 269.271735 
L 535.800383 265.228744 
L 538.695237 250.854421 
L 541.590092 245.982293 
L 544.484946 237.448685 
L 547.379801 230.213842 
L 550.274655 239.495862 
L 553.16951 253.026352 
L 556.064364 259.263274 
L 558.959219 221.261999 
L 561.854073 99.905992 
L 564.748928 88.584072 
L 567.643782 104.704757 
L 570.538637 112.042326 
L 573.433492 111.037071 
L 576.328346 110.2006 
L 579.223201 107.735131 
L 582.118055 112.489895 
L 585.01291 111.308524 
L 587.907764 199.227291 
L 590.802619 231.776781 
L 593.697473 177.486093 
L 596.592328 146.815053 
L 599.487182 145.53829 
L 602.382037 152.626406 
L 605.276891 175.152741 
L 608.171746 247.897382 
L 611.0666 248.227587 
L 613.961455 251.037871 
L 616.85631 250.252763 
L 619.751164 256.849225 
L 622.646019 172.922113 
L 625.540873 136.403052 
L 628.435728 129.006759 
L 631.330582 130.371525 
L 634.225437 120.363093 
L 640.015146 110.097874 
L 642.91 115.197483 
L 645.804855 218.048173 
L 648.699709 247.031548 
L 651.594564 244.015841 
L 654.489418 251.485469 
L 657.384273 250.905784 
L 660.279128 250.135342 
L 663.173982 245.688783 
L 666.068837 250.164705 
L 668.963691 246.804097 
L 671.858546 259.351333 
L 674.7534 261.325146 
L 677.648255 222.362645 
L 680.543109 129.806563 
L 683.437964 130.386248 
L 686.332818 131.662955 
L 689.227673 149.852817 
L 692.122527 137.525699 
L 695.017382 128.280347 
L 697.912237 132.139915 
L 700.807091 225.437077 
L 703.701946 243.751665 
L 706.5968 241.770546 
L 709.491655 234.52098 
L 712.386509 241.359644 
L 715.281364 227.95388 
L 718.176218 228.40145 
L 721.071073 227.653037 
L 723.965927 239.943488 
L 726.860782 226.552391 
L 729.755636 246.31247 
L 732.650491 250.01795 
L 735.545345 178.256507 
L 738.4402 123.166072 
L 741.335055 123.400857 
L 744.229909 128.507799 
L 747.124764 131.978465 
L 750.019618 120.766661 
L 752.914473 120.986779 
L 755.809327 122.241542 
L 758.704182 235.394175 
L 761.599036 218.679194 
L 764.493891 226.8459 
L 767.388745 211.928644 
L 770.2836 212.471605 
L 773.178454 194.054292 
L 776.073309 216.690741 
L 778.968163 240.699234 
L 781.863018 235.408842 
L 784.757873 242.130058 
L 787.652727 240.156272 
L 790.547582 239.818706 
L 793.442436 237.866921 
L 796.337291 147.042505 
L 799.232145 148.686113 
L 802.127 148.605388 
L 805.021854 150.843349 
L 807.916709 146.506877 
L 810.811563 148.73017 
L 813.706418 148.392604 
L 816.601272 148.825562 
L 819.496127 218.349016 
L 822.390981 235.95186 
L 825.285836 234.022075 
L 828.180691 212.955899 
L 831.075545 220.447528 
L 833.9704 226.08282 
L 836.865254 230.023058 
L 842.654963 226.933959 
L 845.549818 264.502304 
L 848.444672 225.216959 
L 851.339527 222.898273 
L 854.234381 225.870036 
L 857.129236 233.112213 
L 860.02409 233.728566 
L 865.813799 163.772153 
L 868.708654 151.701877 
L 871.603509 149.067681 
L 874.498363 151.217583 
L 877.393218 156.397916 
L 883.182927 145.787798 
L 886.077781 162.04782 
L 888.972636 218.950703 
L 891.86749 225.158291 
L 894.762345 234.102744 
L 897.657199 219.809174 
L 900.552054 213.139349 
L 903.446908 208.003017 
L 906.341763 211.084783 
L 909.236617 193.914899 
L 912.131472 146.117975 
L 915.026327 131.178662 
L 917.921181 141.854838 
L 920.816036 147.878976 
L 923.71089 148.495329 
L 926.605745 148.803506 
L 929.500599 199.197957 
L 932.395454 266.395392 
L 935.290308 265.867098 
L 938.185163 254.112303 
L 941.080017 237.734861 
L 943.974872 245.68145 
L 946.869726 249.225508 
L 949.764581 218.253625 
L 949.764581 218.253625 
" clip-path="url(#pc0bf94dced)" style="fill: none; stroke: #4b2cff; stroke-opacity: 0.85; stroke-width: 1.5; stroke-linecap: square"/>
   </g>
   <g id="line2d_32">
    <path d="M 84.203075 103.114443 
L 87.09793 106.168106 
L 89.992784 109.640788 
L 92.887639 106.233604 
L 95.782493 101.463445 
L 98.677348 100.268358 
L 101.572202 100.8453 
L 104.467057 95.677787 
L 107.361912 99.322779 
L 110.256766 102.119153 
L 113.151621 140.963393 
L 116.046475 182.438863 
L 118.94133 226.438357 
L 121.836184 225.0353 
L 124.731039 223.229346 
L 127.625893 231.113516 
L 130.520748 228.328507 
L 133.415602 228.696079 
L 136.310457 236.05033 
L 139.205311 105.82007 
L 142.100166 35.588118 
L 144.99502 107.337553 
L 147.889875 98.731898 
L 150.78473 104.507311 
L 153.679584 98.932478 
L 156.574439 110.125305 
L 159.469293 80.92741 
L 162.364148 108.01834 
L 165.259002 133.346702 
L 168.153857 132.689203 
L 171.048711 133.488391 
L 173.943566 162.056441 
L 176.83842 162.873711 
L 179.733275 157.814801 
L 182.628129 156.968029 
L 185.522984 179.932192 
L 188.417839 176.940277 
L 191.312693 208.413584 
L 194.207548 206.2428 
L 197.102402 208.108822 
L 199.997257 216.359556 
L 202.892111 220.666694 
L 205.786966 178.925986 
L 208.68182 163.552091 
L 211.576675 172.086482 
L 214.471529 160.230054 
L 217.366384 173.521616 
L 220.261238 156.261938 
L 223.156093 156.186139 
L 228.945802 161.606632 
L 231.840657 180.192393 
L 234.735511 155.820694 
L 237.630366 213.357732 
L 240.52522 228.426922 
L 243.420075 234.932554 
L 246.314929 230.125391 
L 249.209784 237.523924 
L 252.104638 236.466103 
L 254.999493 229.999937 
L 257.894347 228.209658 
L 260.789202 233.170041 
L 263.684056 240.637767 
L 266.578911 237.77847 
L 269.473765 229.68146 
L 272.36862 139.646156 
L 275.263475 130.589404 
L 278.158329 120.40032 
L 281.053184 119.723507 
L 283.948038 122.651212 
L 286.842893 119.510387 
L 289.737747 115.595341 
L 292.632602 121.438492 
L 295.527456 112.76857 
L 298.422311 128.429201 
L 301.317165 223.42528 
L 304.21202 236.356548 
L 307.106874 239.140493 
L 310.001729 235.797911 
L 312.896583 236.281533 
L 315.791438 141.928733 
L 318.686293 131.3985 
L 321.581147 128.953409 
L 324.476002 173.244845 
L 327.370856 134.405643 
L 330.265711 132.531224 
L 333.160565 136.666388 
L 336.05542 138.726776 
L 338.950274 138.487848 
L 341.845129 137.707078 
L 344.739983 134.89128 
L 350.529692 136.777455 
L 353.424547 210.043253 
L 356.319401 241.936139 
L 359.214256 240.142165 
L 362.109111 233.960776 
L 365.003965 232.858058 
L 367.89882 234.325773 
L 370.793674 241.158336 
L 373.688529 237.168051 
L 376.583383 240.483258 
L 379.478238 136.439944 
L 382.373092 129.215513 
L 385.267947 127.209986 
L 388.162801 126.270733 
L 391.057656 139.276959 
L 393.95251 131.420165 
L 396.847365 132.478658 
L 399.742219 127.022225 
L 402.637074 119.126692 
L 405.531929 118.924879 
L 408.426783 113.703008 
L 411.321638 241.815947 
L 414.216492 242.758391 
L 417.111347 252.741967 
L 420.006201 247.752922 
L 422.901056 249.632099 
L 425.79591 248.853457 
L 428.690765 246.646006 
L 431.585619 236.867152 
L 434.480474 241.472782 
L 437.375328 248.30848 
L 440.270183 258.96092 
L 443.165038 253.206499 
L 446.059892 253.447862 
L 448.954747 137.28095 
L 451.849601 130.110652 
L 454.744456 107.78697 
L 457.63931 120.218717 
L 460.534165 124.256418 
L 463.429019 121.741126 
L 466.323874 120.34557 
L 469.218728 117.415794 
L 472.113583 118.252993 
L 475.008437 251.623351 
L 477.903292 258.644402 
L 480.798146 257.400975 
L 483.693001 251.613498 
L 486.587856 246.874465 
L 489.48271 235.131567 
L 492.377565 236.570508 
L 495.272419 248.323371 
L 498.167274 249.996873 
L 501.062128 270.02583 
L 503.956983 256.840156 
L 506.851837 267.232227 
L 509.746692 117.752129 
L 512.641546 113.472086 
L 515.536401 126.024136 
L 518.431255 114.902406 
L 521.32611 118.342227 
L 524.220964 121.061234 
L 527.115819 129.292991 
L 530.010674 122.456286 
L 532.905528 239.320529 
L 535.800383 249.789519 
L 538.695237 246.260071 
L 541.590092 254.224294 
L 544.484946 243.024581 
L 547.379801 243.439626 
L 550.274655 239.52598 
L 553.16951 248.395195 
L 556.064364 249.720382 
L 558.959219 242.268387 
L 561.854073 123.412949 
L 564.748928 120.849681 
L 567.643782 120.141799 
L 570.538637 123.759081 
L 573.433492 125.108899 
L 576.328346 127.527847 
L 579.223201 127.816934 
L 582.118055 129.791895 
L 585.01291 132.225063 
L 587.907764 186.869104 
L 590.802619 244.082234 
L 593.697473 182.956017 
L 596.592328 168.870362 
L 599.487182 163.482618 
L 602.382037 164.53305 
L 605.276891 176.794949 
L 608.171746 239.877654 
L 611.0666 253.228388 
L 613.961455 250.352801 
L 616.85631 265.952693 
L 619.751164 255.580103 
L 622.646019 179.066835 
L 625.540873 157.579848 
L 628.435728 165.085192 
L 631.330582 154.8366 
L 634.225437 144.123309 
L 637.120291 145.501958 
L 640.015146 160.416751 
L 642.91 139.899079 
L 645.804855 251.668864 
L 648.699709 243.651795 
L 651.594564 245.050261 
L 654.489418 241.410923 
L 657.384273 245.798618 
L 660.279128 248.365413 
L 663.173982 260.444758 
L 668.963691 257.116451 
L 671.858546 252.25857 
L 674.7534 255.98048 
L 677.648255 228.492084 
L 680.543109 159.9029 
L 683.437964 164.757926 
L 686.332818 166.096045 
L 689.227673 159.670746 
L 692.122527 159.797263 
L 695.017382 165.737317 
L 697.912237 163.643956 
L 700.807091 213.379061 
L 703.701946 246.429918 
L 706.5968 237.724896 
L 709.491655 238.897983 
L 712.386509 234.913744 
L 715.281364 236.940264 
L 718.176218 236.060295 
L 721.071073 240.980819 
L 723.965927 248.162313 
L 726.860782 232.920309 
L 729.755636 250.38068 
L 732.650491 253.588375 
L 735.545345 189.277359 
L 738.4402 178.888199 
L 741.335055 158.190211 
L 744.229909 136.17073 
L 747.124764 140.320001 
L 750.019618 136.033296 
L 752.914473 161.382651 
L 755.809327 133.332931 
L 758.704182 234.27763 
L 761.599036 255.209199 
L 764.493891 240.336532 
L 767.388745 233.782028 
L 770.2836 229.123776 
L 773.178454 221.389132 
L 776.073309 226.56146 
L 778.968163 226.699901 
L 781.863018 246.874017 
L 784.757873 240.076443 
L 787.652727 243.626715 
L 790.547582 239.294721 
L 793.442436 239.593157 
L 796.337291 152.866734 
L 799.232145 148.965739 
L 802.127 152.905529 
L 805.021854 150.748125 
L 807.916709 153.255747 
L 810.811563 150.952904 
L 813.706418 151.781482 
L 816.601272 155.031807 
L 819.496127 213.085495 
L 822.390981 247.56337 
L 825.285836 239.936042 
L 828.180691 235.990319 
L 833.9704 232.859905 
L 836.865254 233.124137 
L 839.760109 227.347548 
L 842.654963 235.435153 
L 845.549818 238.628377 
L 848.444672 238.833436 
L 851.339527 237.69489 
L 854.234381 241.815275 
L 857.129236 250.853609 
L 860.02409 235.020612 
L 862.918945 196.854528 
L 865.813799 165.560864 
L 868.708654 165.871224 
L 871.603509 166.336708 
L 874.498363 166.938394 
L 877.393218 166.749402 
L 880.288072 174.713232 
L 883.182927 176.961549 
L 886.077781 161.743954 
L 888.972636 227.6817 
L 891.86749 241.218852 
L 894.762345 237.539431 
L 900.552054 240.737861 
L 903.446908 241.361212 
L 906.341763 238.331173 
L 909.236617 196.71575 
L 912.131472 141.553267 
L 917.921181 127.253987 
L 920.816036 137.658879 
L 923.71089 142.577052 
L 926.605745 162.308468 
L 929.500599 187.073715 
L 932.395454 239.562815 
L 935.290308 238.683239 
L 938.185163 241.142493 
L 941.080017 238.414865 
L 943.974872 228.658236 
L 946.869726 231.53024 
L 949.764581 199.464596 
L 949.764581 199.464596 
" clip-path="url(#pc0bf94dced)" style="fill: none; stroke-dasharray: 5.18,2.24; stroke-dashoffset: 0; stroke: #ff0000; stroke-width: 1.4"/>
   </g>
   <g id="patch_3">
    <path d="M 40.925 314.277656 
L 40.925 22.317187 
" style="fill: none; stroke: #000000; stroke-width: 0.8; stroke-linejoin: miter; stroke-linecap: square"/>
   </g>
   <g id="patch_4">
    <path d="M 993.042656 314.277656 
L 993.042656 22.317187 
" style="fill: none; stroke: #000000; stroke-width: 0.8; stroke-linejoin: miter; stroke-linecap: square"/>
   </g>
   <g id="patch_5">
    <path d="M 40.925 314.277656 
L 993.042656 314.277656 
" style="fill: none; stroke: #000000; stroke-width: 0.8; stroke-linejoin: miter; stroke-linecap: square"/>
   </g>
   <g id="patch_6">
    <path d="M 40.925 22.317187 
L 993.042656 22.317187 
" style="fill: none; stroke: #000000; stroke-width: 0.8; stroke-linejoin: miter; stroke-linecap: square"/>
   </g>
   <g id="text_18">
    <!-- NOx - DEV - RMSE=4.4112 - R²=0.8625 -->
    <g transform="translate(398.204453 16.317187) scale(0.12 -0.12)">
     <defs>
      <path id="DejaVuSans-10" d="M 313 2009 
L 1997 2009 
L 1997 1497 
L 313 1497 
L 313 2009 
z
" transform="scale(0.015625)"/>
      <path id="DejaVuSans-27" d="M 1259 4147 
L 1259 519 
L 2022 519 
Q 2988 519 3436 956 
Q 3884 1394 3884 2338 
Q 3884 3275 3436 3711 
Q 2988 4147 2022 4147 
L 1259 4147 
z
M 628 4666 
L 1925 4666 
Q 3281 4666 3915 4102 
Q 4550 3538 4550 2338 
Q 4550 1131 3912 565 
Q 3275 0 1925 0 
L 628 0 
L 628 4666 
z
" transform="scale(0.015625)"/>
      <path id="DejaVuSans-28" d="M 628 4666 
L 3578 4666 
L 3578 4134 
L 1259 4134 
L 1259 2753 
L 3481 2753 
L 3481 2222 
L 1259 2222 
L 1259 531 
L 3634 531 
L 3634 0 
L 628 0 
L 628 4666 
z
" transform="scale(0.015625)"/>
      <path id="DejaVuSans-39" d="M 1831 0 
L 50 4666 
L 709 4666 
L 2188 738 
L 3669 4666 
L 4325 4666 
L 2547 0 
L 1831 0 
z
" transform="scale(0.015625)"/>
      <path id="DejaVuSans-35" d="M 2841 2188 
Q 3044 2119 3236 1894 
Q 3428 1669 3622 1275 
L 4263 0 
L 3584 0 
L 2988 1197 
Q 2756 1666 2539 1819 
Q 2322 1972 1947 1972 
L 1259 1972 
L 1259 0 
L 628 0 
L 628 4666 
L 2053 4666 
Q 2853 4666 3247 4331 
Q 3641 3997 3641 3322 
Q 3641 2881 3436 2590 
Q 3231 2300 2841 2188 
z
M 1259 4147 
L 1259 2491 
L 2053 2491 
Q 2509 2491 2742 2702 
Q 2975 2913 2975 3322 
Q 2975 3731 2742 3939 
Q 2509 4147 2053 4147 
L 1259 4147 
z
" transform="scale(0.015625)"/>
      <path id="DejaVuSans-36" d="M 3425 4513 
L 3425 3897 
Q 3066 4069 2747 4153 
Q 2428 4238 2131 4238 
Q 1616 4238 1336 4038 
Q 1056 3838 1056 3469 
Q 1056 3159 1242 3001 
Q 1428 2844 1947 2747 
L 2328 2669 
Q 3034 2534 3370 2195 
Q 3706 1856 3706 1288 
Q 3706 609 3251 259 
Q 2797 -91 1919 -91 
Q 1588 -91 1214 -16 
Q 841 59 441 206 
L 441 856 
Q 825 641 1194 531 
Q 1563 422 1919 422 
Q 2459 422 2753 634 
Q 3047 847 3047 1241 
Q 3047 1584 2836 1778 
Q 2625 1972 2144 2069 
L 1759 2144 
Q 1053 2284 737 2584 
Q 422 2884 422 3419 
Q 422 4038 858 4394 
Q 1294 4750 2059 4750 
Q 2388 4750 2728 4690 
Q 3069 4631 3425 4513 
z
" transform="scale(0.015625)"/>
      <path id="DejaVuSans-20" d="M 678 2906 
L 4684 2906 
L 4684 2381 
L 678 2381 
L 678 2906 
z
M 678 1631 
L 4684 1631 
L 4684 1100 
L 678 1100 
L 678 1631 
z
" transform="scale(0.015625)"/>
      <path id="DejaVuSans-17" d="M 2419 4116 
L 825 1625 
L 2419 1625 
L 2419 4116 
z
M 2253 4666 
L 3047 4666 
L 3047 1625 
L 3713 1625 
L 3713 1100 
L 3047 1100 
L 3047 0 
L 2419 0 
L 2419 1100 
L 313 1100 
L 313 1709 
L 2253 4666 
z
" transform="scale(0.015625)"/>
      <path id="DejaVuSans-11" d="M 684 794 
L 1344 794 
L 1344 0 
L 684 0 
L 684 794 
z
" transform="scale(0.015625)"/>
      <path id="DejaVuSans-74" d="M 838 2444 
L 2163 2444 
L 2163 2088 
L 294 2088 
L 294 2431 
Q 400 2528 597 2703 
Q 1672 3656 1672 3950 
Q 1672 4156 1509 4282 
Q 1347 4409 1081 4409 
Q 919 4409 728 4354 
Q 538 4300 313 4191 
L 313 4575 
Q 553 4663 761 4706 
Q 969 4750 1147 4750 
Q 1600 4750 1872 4544 
Q 2144 4338 2144 4000 
Q 2144 3566 1109 2678 
Q 934 2528 838 2444 
z
" transform="scale(0.015625)"/>
     </defs>
     <use xlink:href="#DejaVuSans-31"/>
     <use xlink:href="#DejaVuSans-32" transform="translate(74.8125 0)"/>
     <use xlink:href="#DejaVuSans-5b" transform="translate(153.53125 0)"/>
     <use xlink:href="#DejaVuSans-3" transform="translate(212.71875 0)"/>
     <use xlink:href="#DejaVuSans-10" transform="translate(244.5 0)"/>
     <use xlink:href="#DejaVuSans-3" transform="translate(280.578125 0)"/>
     <use xlink:href="#DejaVuSans-27" transform="translate(312.359375 0)"/>
     <use xlink:href="#DejaVuSans-28" transform="translate(389.359375 0)"/>
     <use xlink:href="#DejaVuSans-39" transform="translate(452.546875 0)"/>
     <use xlink:href="#DejaVuSans-3" transform="translate(520.953125 0)"/>
     <use xlink:href="#DejaVuSans-10" transform="translate(552.734375 0)"/>
     <use xlink:href="#DejaVuSans-3" transform="translate(588.8125 0)"/>
     <use xlink:href="#DejaVuSans-35" transform="translate(620.59375 0)"/>
     <use xlink:href="#DejaVuSans-30" transform="translate(690.078125 0)"/>
     <use xlink:href="#DejaVuSans-36" transform="translate(776.359375 0)"/>
     <use xlink:href="#DejaVuSans-28" transform="translate(839.84375 0)"/>
     <use xlink:href="#DejaVuSans-20" transform="translate(903.03125 0)"/>
     <use xlink:href="#DejaVuSans-17" transform="translate(986.828125 0)"/>
     <use xlink:href="#DejaVuSans-11" transform="translate(1050.453125 0)"/>
     <use xlink:href="#DejaVuSans-17" transform="translate(1082.234375 0)"/>
     <use xlink:href="#DejaVuSans-14" transform="translate(1145.859375 0)"/>
     <use xlink:href="#DejaVuSans-14" transform="translate(1209.484375 0)"/>
     <use xlink:href="#DejaVuSans-15" transform="translate(1273.109375 0)"/>
     <use xlink:href="#DejaVuSans-3" transform="translate(1336.734375 0)"/>
     <use xlink:href="#DejaVuSans-10" transform="translate(1368.515625 0)"/>
     <use xlink:href="#DejaVuSans-3" transform="translate(1404.59375 0)"/>
     <use xlink:href="#DejaVuSans-35" transform="translate(1436.375 0)"/>
     <use xlink:href="#DejaVuSans-74" transform="translate(1505.859375 0)"/>
     <use xlink:href="#DejaVuSans-20" transform="translate(1545.953125 0)"/>
     <use xlink:href="#DejaVuSans-13" transform="translate(1629.75 0)"/>
     <use xlink:href="#DejaVuSans-11" transform="translate(1693.375 0)"/>
     <use xlink:href="#DejaVuSans-1b" transform="translate(1725.15625 0)"/>
     <use xlink:href="#DejaVuSans-19" transform="translate(1788.78125 0)"/>
     <use xlink:href="#DejaVuSans-15" transform="translate(1852.40625 0)"/>
     <use xlink:href="#DejaVuSans-18" transform="translate(1916.03125 0)"/>
    </g>
   </g>
   <g id="legend_1">
    <g id="patch_7">
     <path d="M 915.369219 60.31875 
L 986.042656 60.31875 
Q 988.042656 60.31875 988.042656 58.31875 
L 988.042656 29.317187 
Q 988.042656 27.317187 986.042656 27.317187 
L 915.369219 27.317187 
Q 913.369219 27.317187 913.369219 29.317187 
L 913.369219 58.31875 
Q 913.369219 60.31875 915.369219 60.31875 
z
" style="fill: #ffffff; opacity: 0.8; stroke: #cccccc; stroke-linejoin: miter"/>
    </g>
    <g id="line2d_33">
     <path d="M 917.369219 35.415625 
L 927.369219 35.415625 
L 937.369219 35.415625 
" style="fill: none; stroke: #4b2cff; stroke-opacity: 0.85; stroke-width: 1.5; stroke-linecap: square"/>
    </g>
    <g id="text_19">
     <!-- Real -->
     <g transform="translate(945.369219 38.915625) scale(0.1 -0.1)">
      <defs>
       <path id="DejaVuSans-4f" d="M 603 4863 
L 1178 4863 
L 1178 0 
L 603 0 
L 603 4863 
z
" transform="scale(0.015625)"/>
      </defs>
      <use xlink:href="#DejaVuSans-35"/>
      <use xlink:href="#DejaVuSans-48" transform="translate(65 0)"/>
      <use xlink:href="#DejaVuSans-44" transform="translate(126.53125 0)"/>
      <use xlink:href="#DejaVuSans-4f" transform="translate(187.8125 0)"/>
     </g>
    </g>
    <g id="line2d_34">
     <path d="M 917.369219 50.416406 
L 927.369219 50.416406 
L 937.369219 50.416406 
" style="fill: none; stroke-dasharray: 5.18,2.24; stroke-dashoffset: 0; stroke: #ff0000; stroke-width: 1.4"/>
    </g>
    <g id="text_20">
     <!-- TT-PINN -->
     <g transform="translate(945.369219 53.916406) scale(0.1 -0.1)">
      <defs>
       <path id="DejaVuSans-37" d="M -19 4666 
L 3928 4666 
L 3928 4134 
L 2272 4134 
L 2272 0 
L 1638 0 
L 1638 4134 
L -19 4134 
L -19 4666 
z
" transform="scale(0.015625)"/>
       <path id="DejaVuSans-33" d="M 1259 4147 
L 1259 2394 
L 2053 2394 
Q 2494 2394 2734 2622 
Q 2975 2850 2975 3272 
Q 2975 3691 2734 3919 
Q 2494 4147 2053 4147 
L 1259 4147 
z
M 628 4666 
L 2053 4666 
Q 2838 4666 3239 4311 
Q 3641 3956 3641 3272 
Q 3641 2581 3239 2228 
Q 2838 1875 2053 1875 
L 1259 1875 
L 1259 0 
L 628 0 
L 628 4666 
z
" transform="scale(0.015625)"/>
       <path id="DejaVuSans-2c" d="M 628 4666 
L 1259 4666 
L 1259 0 
L 628 0 
L 628 4666 
z
" transform="scale(0.015625)"/>
      </defs>
      <use xlink:href="#DejaVuSans-37"/>
      <use xlink:href="#DejaVuSans-37" transform="translate(59.328125 0)"/>
      <use xlink:href="#DejaVuSans-10" transform="translate(111.234375 0)"/>
      <use xlink:href="#DejaVuSans-33" transform="translate(147.3125 0)"/>
      <use xlink:href="#DejaVuSans-2c" transform="translate(207.609375 0)"/>
      <use xlink:href="#DejaVuSans-31" transform="translate(237.109375 0)"/>
      <use xlink:href="#DejaVuSans-31" transform="translate(311.921875 0)"/>
     </g>
    </g>
   </g>
  </g>
 </g>
 <defs>
  <clipPath id="pc0bf94dced">
   <rect x="40.925" y="22.317187" width="952.117656" height="291.960469"/>
  </clipPath>
 </defs>
</svg>
